%TF.GenerationSoftware,KiCad,Pcbnew,9.0.7*%
%TF.CreationDate,2026-03-27T19:36:20-07:00*%
%TF.ProjectId,Wiper_Servo_Controller,57697065-725f-4536-9572-766f5f436f6e,rev?*%
%TF.SameCoordinates,Original*%
%TF.FileFunction,AssemblyDrawing,Bot*%
%FSLAX46Y46*%
G04 Gerber Fmt 4.6, Leading zero omitted, Abs format (unit mm)*
G04 Created by KiCad (PCBNEW 9.0.7) date 2026-03-27 19:36:20*
%MOMM*%
%LPD*%
G01*
G04 APERTURE LIST*
%ADD10C,0.150000*%
%ADD11C,0.100000*%
G04 APERTURE END LIST*
D10*
X159824819Y-89324286D02*
X159824819Y-89943333D01*
X159824819Y-89943333D02*
X160205771Y-89610000D01*
X160205771Y-89610000D02*
X160205771Y-89752857D01*
X160205771Y-89752857D02*
X160253390Y-89848095D01*
X160253390Y-89848095D02*
X160301009Y-89895714D01*
X160301009Y-89895714D02*
X160396247Y-89943333D01*
X160396247Y-89943333D02*
X160634342Y-89943333D01*
X160634342Y-89943333D02*
X160729580Y-89895714D01*
X160729580Y-89895714D02*
X160777200Y-89848095D01*
X160777200Y-89848095D02*
X160824819Y-89752857D01*
X160824819Y-89752857D02*
X160824819Y-89467143D01*
X160824819Y-89467143D02*
X160777200Y-89371905D01*
X160777200Y-89371905D02*
X160729580Y-89324286D01*
X159824819Y-90276667D02*
X159824819Y-90895714D01*
X159824819Y-90895714D02*
X160205771Y-90562381D01*
X160205771Y-90562381D02*
X160205771Y-90705238D01*
X160205771Y-90705238D02*
X160253390Y-90800476D01*
X160253390Y-90800476D02*
X160301009Y-90848095D01*
X160301009Y-90848095D02*
X160396247Y-90895714D01*
X160396247Y-90895714D02*
X160634342Y-90895714D01*
X160634342Y-90895714D02*
X160729580Y-90848095D01*
X160729580Y-90848095D02*
X160777200Y-90800476D01*
X160777200Y-90800476D02*
X160824819Y-90705238D01*
X160824819Y-90705238D02*
X160824819Y-90419524D01*
X160824819Y-90419524D02*
X160777200Y-90324286D01*
X160777200Y-90324286D02*
X160729580Y-90276667D01*
X159824819Y-91514762D02*
X159824819Y-91610000D01*
X159824819Y-91610000D02*
X159872438Y-91705238D01*
X159872438Y-91705238D02*
X159920057Y-91752857D01*
X159920057Y-91752857D02*
X160015295Y-91800476D01*
X160015295Y-91800476D02*
X160205771Y-91848095D01*
X160205771Y-91848095D02*
X160443866Y-91848095D01*
X160443866Y-91848095D02*
X160634342Y-91800476D01*
X160634342Y-91800476D02*
X160729580Y-91752857D01*
X160729580Y-91752857D02*
X160777200Y-91705238D01*
X160777200Y-91705238D02*
X160824819Y-91610000D01*
X160824819Y-91610000D02*
X160824819Y-91514762D01*
X160824819Y-91514762D02*
X160777200Y-91419524D01*
X160777200Y-91419524D02*
X160729580Y-91371905D01*
X160729580Y-91371905D02*
X160634342Y-91324286D01*
X160634342Y-91324286D02*
X160443866Y-91276667D01*
X160443866Y-91276667D02*
X160205771Y-91276667D01*
X160205771Y-91276667D02*
X160015295Y-91324286D01*
X160015295Y-91324286D02*
X159920057Y-91371905D01*
X159920057Y-91371905D02*
X159872438Y-91419524D01*
X159872438Y-91419524D02*
X159824819Y-91514762D01*
X158454819Y-89967142D02*
X157978628Y-89633809D01*
X158454819Y-89395714D02*
X157454819Y-89395714D01*
X157454819Y-89395714D02*
X157454819Y-89776666D01*
X157454819Y-89776666D02*
X157502438Y-89871904D01*
X157502438Y-89871904D02*
X157550057Y-89919523D01*
X157550057Y-89919523D02*
X157645295Y-89967142D01*
X157645295Y-89967142D02*
X157788152Y-89967142D01*
X157788152Y-89967142D02*
X157883390Y-89919523D01*
X157883390Y-89919523D02*
X157931009Y-89871904D01*
X157931009Y-89871904D02*
X157978628Y-89776666D01*
X157978628Y-89776666D02*
X157978628Y-89395714D01*
X158454819Y-90919523D02*
X158454819Y-90348095D01*
X158454819Y-90633809D02*
X157454819Y-90633809D01*
X157454819Y-90633809D02*
X157597676Y-90538571D01*
X157597676Y-90538571D02*
X157692914Y-90443333D01*
X157692914Y-90443333D02*
X157740533Y-90348095D01*
X157454819Y-91538571D02*
X157454819Y-91633809D01*
X157454819Y-91633809D02*
X157502438Y-91729047D01*
X157502438Y-91729047D02*
X157550057Y-91776666D01*
X157550057Y-91776666D02*
X157645295Y-91824285D01*
X157645295Y-91824285D02*
X157835771Y-91871904D01*
X157835771Y-91871904D02*
X158073866Y-91871904D01*
X158073866Y-91871904D02*
X158264342Y-91824285D01*
X158264342Y-91824285D02*
X158359580Y-91776666D01*
X158359580Y-91776666D02*
X158407200Y-91729047D01*
X158407200Y-91729047D02*
X158454819Y-91633809D01*
X158454819Y-91633809D02*
X158454819Y-91538571D01*
X158454819Y-91538571D02*
X158407200Y-91443333D01*
X158407200Y-91443333D02*
X158359580Y-91395714D01*
X158359580Y-91395714D02*
X158264342Y-91348095D01*
X158264342Y-91348095D02*
X158073866Y-91300476D01*
X158073866Y-91300476D02*
X157835771Y-91300476D01*
X157835771Y-91300476D02*
X157645295Y-91348095D01*
X157645295Y-91348095D02*
X157550057Y-91395714D01*
X157550057Y-91395714D02*
X157502438Y-91443333D01*
X157502438Y-91443333D02*
X157454819Y-91538571D01*
X120260057Y-97000000D02*
X120212438Y-97047619D01*
X120212438Y-97047619D02*
X120164819Y-97142857D01*
X120164819Y-97142857D02*
X120164819Y-97380952D01*
X120164819Y-97380952D02*
X120212438Y-97476190D01*
X120212438Y-97476190D02*
X120260057Y-97523809D01*
X120260057Y-97523809D02*
X120355295Y-97571428D01*
X120355295Y-97571428D02*
X120450533Y-97571428D01*
X120450533Y-97571428D02*
X120593390Y-97523809D01*
X120593390Y-97523809D02*
X121164819Y-96952381D01*
X121164819Y-96952381D02*
X121164819Y-97571428D01*
X121069580Y-98000000D02*
X121117200Y-98047619D01*
X121117200Y-98047619D02*
X121164819Y-98000000D01*
X121164819Y-98000000D02*
X121117200Y-97952381D01*
X121117200Y-97952381D02*
X121069580Y-98000000D01*
X121069580Y-98000000D02*
X121164819Y-98000000D01*
X120260057Y-98428571D02*
X120212438Y-98476190D01*
X120212438Y-98476190D02*
X120164819Y-98571428D01*
X120164819Y-98571428D02*
X120164819Y-98809523D01*
X120164819Y-98809523D02*
X120212438Y-98904761D01*
X120212438Y-98904761D02*
X120260057Y-98952380D01*
X120260057Y-98952380D02*
X120355295Y-98999999D01*
X120355295Y-98999999D02*
X120450533Y-98999999D01*
X120450533Y-98999999D02*
X120593390Y-98952380D01*
X120593390Y-98952380D02*
X121164819Y-98380952D01*
X121164819Y-98380952D02*
X121164819Y-98999999D01*
X121164819Y-99428571D02*
X120164819Y-99428571D01*
X121164819Y-99999999D02*
X120593390Y-99571428D01*
X120164819Y-99999999D02*
X120736247Y-99428571D01*
X123534819Y-98333333D02*
X123058628Y-98000000D01*
X123534819Y-97761905D02*
X122534819Y-97761905D01*
X122534819Y-97761905D02*
X122534819Y-98142857D01*
X122534819Y-98142857D02*
X122582438Y-98238095D01*
X122582438Y-98238095D02*
X122630057Y-98285714D01*
X122630057Y-98285714D02*
X122725295Y-98333333D01*
X122725295Y-98333333D02*
X122868152Y-98333333D01*
X122868152Y-98333333D02*
X122963390Y-98285714D01*
X122963390Y-98285714D02*
X123011009Y-98238095D01*
X123011009Y-98238095D02*
X123058628Y-98142857D01*
X123058628Y-98142857D02*
X123058628Y-97761905D01*
X122868152Y-99190476D02*
X123534819Y-99190476D01*
X122487200Y-98952381D02*
X123201485Y-98714286D01*
X123201485Y-98714286D02*
X123201485Y-99333333D01*
X129284819Y-97469523D02*
X129284819Y-96898095D01*
X129284819Y-97183809D02*
X128284819Y-97183809D01*
X128284819Y-97183809D02*
X128427676Y-97088571D01*
X128427676Y-97088571D02*
X128522914Y-96993333D01*
X128522914Y-96993333D02*
X128570533Y-96898095D01*
X128284819Y-98088571D02*
X128284819Y-98183809D01*
X128284819Y-98183809D02*
X128332438Y-98279047D01*
X128332438Y-98279047D02*
X128380057Y-98326666D01*
X128380057Y-98326666D02*
X128475295Y-98374285D01*
X128475295Y-98374285D02*
X128665771Y-98421904D01*
X128665771Y-98421904D02*
X128903866Y-98421904D01*
X128903866Y-98421904D02*
X129094342Y-98374285D01*
X129094342Y-98374285D02*
X129189580Y-98326666D01*
X129189580Y-98326666D02*
X129237200Y-98279047D01*
X129237200Y-98279047D02*
X129284819Y-98183809D01*
X129284819Y-98183809D02*
X129284819Y-98088571D01*
X129284819Y-98088571D02*
X129237200Y-97993333D01*
X129237200Y-97993333D02*
X129189580Y-97945714D01*
X129189580Y-97945714D02*
X129094342Y-97898095D01*
X129094342Y-97898095D02*
X128903866Y-97850476D01*
X128903866Y-97850476D02*
X128665771Y-97850476D01*
X128665771Y-97850476D02*
X128475295Y-97898095D01*
X128475295Y-97898095D02*
X128380057Y-97945714D01*
X128380057Y-97945714D02*
X128332438Y-97993333D01*
X128332438Y-97993333D02*
X128284819Y-98088571D01*
X129284819Y-98850476D02*
X128284819Y-98850476D01*
X129284819Y-99421904D02*
X128713390Y-98993333D01*
X128284819Y-99421904D02*
X128856247Y-98850476D01*
X131654819Y-97993333D02*
X131178628Y-97660000D01*
X131654819Y-97421905D02*
X130654819Y-97421905D01*
X130654819Y-97421905D02*
X130654819Y-97802857D01*
X130654819Y-97802857D02*
X130702438Y-97898095D01*
X130702438Y-97898095D02*
X130750057Y-97945714D01*
X130750057Y-97945714D02*
X130845295Y-97993333D01*
X130845295Y-97993333D02*
X130988152Y-97993333D01*
X130988152Y-97993333D02*
X131083390Y-97945714D01*
X131083390Y-97945714D02*
X131131009Y-97898095D01*
X131131009Y-97898095D02*
X131178628Y-97802857D01*
X131178628Y-97802857D02*
X131178628Y-97421905D01*
X130654819Y-98326667D02*
X130654819Y-98993333D01*
X130654819Y-98993333D02*
X131654819Y-98564762D01*
X155084819Y-101304286D02*
X155084819Y-101923333D01*
X155084819Y-101923333D02*
X155465771Y-101590000D01*
X155465771Y-101590000D02*
X155465771Y-101732857D01*
X155465771Y-101732857D02*
X155513390Y-101828095D01*
X155513390Y-101828095D02*
X155561009Y-101875714D01*
X155561009Y-101875714D02*
X155656247Y-101923333D01*
X155656247Y-101923333D02*
X155894342Y-101923333D01*
X155894342Y-101923333D02*
X155989580Y-101875714D01*
X155989580Y-101875714D02*
X156037200Y-101828095D01*
X156037200Y-101828095D02*
X156084819Y-101732857D01*
X156084819Y-101732857D02*
X156084819Y-101447143D01*
X156084819Y-101447143D02*
X156037200Y-101351905D01*
X156037200Y-101351905D02*
X155989580Y-101304286D01*
X155084819Y-102256667D02*
X155084819Y-102875714D01*
X155084819Y-102875714D02*
X155465771Y-102542381D01*
X155465771Y-102542381D02*
X155465771Y-102685238D01*
X155465771Y-102685238D02*
X155513390Y-102780476D01*
X155513390Y-102780476D02*
X155561009Y-102828095D01*
X155561009Y-102828095D02*
X155656247Y-102875714D01*
X155656247Y-102875714D02*
X155894342Y-102875714D01*
X155894342Y-102875714D02*
X155989580Y-102828095D01*
X155989580Y-102828095D02*
X156037200Y-102780476D01*
X156037200Y-102780476D02*
X156084819Y-102685238D01*
X156084819Y-102685238D02*
X156084819Y-102399524D01*
X156084819Y-102399524D02*
X156037200Y-102304286D01*
X156037200Y-102304286D02*
X155989580Y-102256667D01*
X155084819Y-103494762D02*
X155084819Y-103590000D01*
X155084819Y-103590000D02*
X155132438Y-103685238D01*
X155132438Y-103685238D02*
X155180057Y-103732857D01*
X155180057Y-103732857D02*
X155275295Y-103780476D01*
X155275295Y-103780476D02*
X155465771Y-103828095D01*
X155465771Y-103828095D02*
X155703866Y-103828095D01*
X155703866Y-103828095D02*
X155894342Y-103780476D01*
X155894342Y-103780476D02*
X155989580Y-103732857D01*
X155989580Y-103732857D02*
X156037200Y-103685238D01*
X156037200Y-103685238D02*
X156084819Y-103590000D01*
X156084819Y-103590000D02*
X156084819Y-103494762D01*
X156084819Y-103494762D02*
X156037200Y-103399524D01*
X156037200Y-103399524D02*
X155989580Y-103351905D01*
X155989580Y-103351905D02*
X155894342Y-103304286D01*
X155894342Y-103304286D02*
X155703866Y-103256667D01*
X155703866Y-103256667D02*
X155465771Y-103256667D01*
X155465771Y-103256667D02*
X155275295Y-103304286D01*
X155275295Y-103304286D02*
X155180057Y-103351905D01*
X155180057Y-103351905D02*
X155132438Y-103399524D01*
X155132438Y-103399524D02*
X155084819Y-103494762D01*
X158454819Y-101947142D02*
X157978628Y-101613809D01*
X158454819Y-101375714D02*
X157454819Y-101375714D01*
X157454819Y-101375714D02*
X157454819Y-101756666D01*
X157454819Y-101756666D02*
X157502438Y-101851904D01*
X157502438Y-101851904D02*
X157550057Y-101899523D01*
X157550057Y-101899523D02*
X157645295Y-101947142D01*
X157645295Y-101947142D02*
X157788152Y-101947142D01*
X157788152Y-101947142D02*
X157883390Y-101899523D01*
X157883390Y-101899523D02*
X157931009Y-101851904D01*
X157931009Y-101851904D02*
X157978628Y-101756666D01*
X157978628Y-101756666D02*
X157978628Y-101375714D01*
X158454819Y-102899523D02*
X158454819Y-102328095D01*
X158454819Y-102613809D02*
X157454819Y-102613809D01*
X157454819Y-102613809D02*
X157597676Y-102518571D01*
X157597676Y-102518571D02*
X157692914Y-102423333D01*
X157692914Y-102423333D02*
X157740533Y-102328095D01*
X158454819Y-103851904D02*
X158454819Y-103280476D01*
X158454819Y-103566190D02*
X157454819Y-103566190D01*
X157454819Y-103566190D02*
X157597676Y-103470952D01*
X157597676Y-103470952D02*
X157692914Y-103375714D01*
X157692914Y-103375714D02*
X157740533Y-103280476D01*
X168247618Y-67104819D02*
X168247618Y-66104819D01*
X168247618Y-66104819D02*
X168009523Y-66104819D01*
X168009523Y-66104819D02*
X167866666Y-66152438D01*
X167866666Y-66152438D02*
X167771428Y-66247676D01*
X167771428Y-66247676D02*
X167723809Y-66342914D01*
X167723809Y-66342914D02*
X167676190Y-66533390D01*
X167676190Y-66533390D02*
X167676190Y-66676247D01*
X167676190Y-66676247D02*
X167723809Y-66866723D01*
X167723809Y-66866723D02*
X167771428Y-66961961D01*
X167771428Y-66961961D02*
X167866666Y-67057200D01*
X167866666Y-67057200D02*
X168009523Y-67104819D01*
X168009523Y-67104819D02*
X168247618Y-67104819D01*
X167247618Y-67104819D02*
X167247618Y-66104819D01*
X167247618Y-66104819D02*
X166914285Y-66819104D01*
X166914285Y-66819104D02*
X166580952Y-66104819D01*
X166580952Y-66104819D02*
X166580952Y-67104819D01*
X166199999Y-66104819D02*
X165533333Y-67104819D01*
X165533333Y-66104819D02*
X166199999Y-67104819D01*
X165390476Y-67200057D02*
X164628571Y-67200057D01*
X164533332Y-66104819D02*
X163961904Y-66104819D01*
X164247618Y-67104819D02*
X164247618Y-66104819D01*
X163723808Y-66104819D02*
X163057142Y-67104819D01*
X163057142Y-66104819D02*
X163723808Y-67104819D01*
X166961904Y-69504819D02*
X166390476Y-69504819D01*
X166676190Y-70504819D02*
X166676190Y-69504819D01*
X166057142Y-70504819D02*
X166057142Y-69504819D01*
X166057142Y-69504819D02*
X165676190Y-69504819D01*
X165676190Y-69504819D02*
X165580952Y-69552438D01*
X165580952Y-69552438D02*
X165533333Y-69600057D01*
X165533333Y-69600057D02*
X165485714Y-69695295D01*
X165485714Y-69695295D02*
X165485714Y-69838152D01*
X165485714Y-69838152D02*
X165533333Y-69933390D01*
X165533333Y-69933390D02*
X165580952Y-69981009D01*
X165580952Y-69981009D02*
X165676190Y-70028628D01*
X165676190Y-70028628D02*
X166057142Y-70028628D01*
X164580952Y-69504819D02*
X165057142Y-69504819D01*
X165057142Y-69504819D02*
X165104761Y-69981009D01*
X165104761Y-69981009D02*
X165057142Y-69933390D01*
X165057142Y-69933390D02*
X164961904Y-69885771D01*
X164961904Y-69885771D02*
X164723809Y-69885771D01*
X164723809Y-69885771D02*
X164628571Y-69933390D01*
X164628571Y-69933390D02*
X164580952Y-69981009D01*
X164580952Y-69981009D02*
X164533333Y-70076247D01*
X164533333Y-70076247D02*
X164533333Y-70314342D01*
X164533333Y-70314342D02*
X164580952Y-70409580D01*
X164580952Y-70409580D02*
X164628571Y-70457200D01*
X164628571Y-70457200D02*
X164723809Y-70504819D01*
X164723809Y-70504819D02*
X164961904Y-70504819D01*
X164961904Y-70504819D02*
X165057142Y-70457200D01*
X165057142Y-70457200D02*
X165104761Y-70409580D01*
X117260057Y-97000000D02*
X117212438Y-97047619D01*
X117212438Y-97047619D02*
X117164819Y-97142857D01*
X117164819Y-97142857D02*
X117164819Y-97380952D01*
X117164819Y-97380952D02*
X117212438Y-97476190D01*
X117212438Y-97476190D02*
X117260057Y-97523809D01*
X117260057Y-97523809D02*
X117355295Y-97571428D01*
X117355295Y-97571428D02*
X117450533Y-97571428D01*
X117450533Y-97571428D02*
X117593390Y-97523809D01*
X117593390Y-97523809D02*
X118164819Y-96952381D01*
X118164819Y-96952381D02*
X118164819Y-97571428D01*
X118069580Y-98000000D02*
X118117200Y-98047619D01*
X118117200Y-98047619D02*
X118164819Y-98000000D01*
X118164819Y-98000000D02*
X118117200Y-97952381D01*
X118117200Y-97952381D02*
X118069580Y-98000000D01*
X118069580Y-98000000D02*
X118164819Y-98000000D01*
X117260057Y-98428571D02*
X117212438Y-98476190D01*
X117212438Y-98476190D02*
X117164819Y-98571428D01*
X117164819Y-98571428D02*
X117164819Y-98809523D01*
X117164819Y-98809523D02*
X117212438Y-98904761D01*
X117212438Y-98904761D02*
X117260057Y-98952380D01*
X117260057Y-98952380D02*
X117355295Y-98999999D01*
X117355295Y-98999999D02*
X117450533Y-98999999D01*
X117450533Y-98999999D02*
X117593390Y-98952380D01*
X117593390Y-98952380D02*
X118164819Y-98380952D01*
X118164819Y-98380952D02*
X118164819Y-98999999D01*
X118164819Y-99428571D02*
X117164819Y-99428571D01*
X118164819Y-99999999D02*
X117593390Y-99571428D01*
X117164819Y-99999999D02*
X117736247Y-99428571D01*
X120534819Y-98333333D02*
X120058628Y-98000000D01*
X120534819Y-97761905D02*
X119534819Y-97761905D01*
X119534819Y-97761905D02*
X119534819Y-98142857D01*
X119534819Y-98142857D02*
X119582438Y-98238095D01*
X119582438Y-98238095D02*
X119630057Y-98285714D01*
X119630057Y-98285714D02*
X119725295Y-98333333D01*
X119725295Y-98333333D02*
X119868152Y-98333333D01*
X119868152Y-98333333D02*
X119963390Y-98285714D01*
X119963390Y-98285714D02*
X120011009Y-98238095D01*
X120011009Y-98238095D02*
X120058628Y-98142857D01*
X120058628Y-98142857D02*
X120058628Y-97761905D01*
X119630057Y-98714286D02*
X119582438Y-98761905D01*
X119582438Y-98761905D02*
X119534819Y-98857143D01*
X119534819Y-98857143D02*
X119534819Y-99095238D01*
X119534819Y-99095238D02*
X119582438Y-99190476D01*
X119582438Y-99190476D02*
X119630057Y-99238095D01*
X119630057Y-99238095D02*
X119725295Y-99285714D01*
X119725295Y-99285714D02*
X119820533Y-99285714D01*
X119820533Y-99285714D02*
X119963390Y-99238095D01*
X119963390Y-99238095D02*
X120534819Y-98666667D01*
X120534819Y-98666667D02*
X120534819Y-99285714D01*
X171861904Y-69304819D02*
X171290476Y-69304819D01*
X171576190Y-70304819D02*
X171576190Y-69304819D01*
X170957142Y-70304819D02*
X170957142Y-69304819D01*
X170957142Y-69304819D02*
X170576190Y-69304819D01*
X170576190Y-69304819D02*
X170480952Y-69352438D01*
X170480952Y-69352438D02*
X170433333Y-69400057D01*
X170433333Y-69400057D02*
X170385714Y-69495295D01*
X170385714Y-69495295D02*
X170385714Y-69638152D01*
X170385714Y-69638152D02*
X170433333Y-69733390D01*
X170433333Y-69733390D02*
X170480952Y-69781009D01*
X170480952Y-69781009D02*
X170576190Y-69828628D01*
X170576190Y-69828628D02*
X170957142Y-69828628D01*
X169528571Y-69638152D02*
X169528571Y-70304819D01*
X169766666Y-69257200D02*
X170004761Y-69971485D01*
X170004761Y-69971485D02*
X169385714Y-69971485D01*
X160158152Y-74938095D02*
X160824819Y-74938095D01*
X159777200Y-74700000D02*
X160491485Y-74461905D01*
X160491485Y-74461905D02*
X160491485Y-75080952D01*
X159824819Y-75366667D02*
X159824819Y-76033333D01*
X159824819Y-76033333D02*
X160824819Y-75604762D01*
X159824819Y-76604762D02*
X159824819Y-76700000D01*
X159824819Y-76700000D02*
X159872438Y-76795238D01*
X159872438Y-76795238D02*
X159920057Y-76842857D01*
X159920057Y-76842857D02*
X160015295Y-76890476D01*
X160015295Y-76890476D02*
X160205771Y-76938095D01*
X160205771Y-76938095D02*
X160443866Y-76938095D01*
X160443866Y-76938095D02*
X160634342Y-76890476D01*
X160634342Y-76890476D02*
X160729580Y-76842857D01*
X160729580Y-76842857D02*
X160777200Y-76795238D01*
X160777200Y-76795238D02*
X160824819Y-76700000D01*
X160824819Y-76700000D02*
X160824819Y-76604762D01*
X160824819Y-76604762D02*
X160777200Y-76509524D01*
X160777200Y-76509524D02*
X160729580Y-76461905D01*
X160729580Y-76461905D02*
X160634342Y-76414286D01*
X160634342Y-76414286D02*
X160443866Y-76366667D01*
X160443866Y-76366667D02*
X160205771Y-76366667D01*
X160205771Y-76366667D02*
X160015295Y-76414286D01*
X160015295Y-76414286D02*
X159920057Y-76461905D01*
X159920057Y-76461905D02*
X159872438Y-76509524D01*
X159872438Y-76509524D02*
X159824819Y-76604762D01*
X158454819Y-75533333D02*
X157978628Y-75200000D01*
X158454819Y-74961905D02*
X157454819Y-74961905D01*
X157454819Y-74961905D02*
X157454819Y-75342857D01*
X157454819Y-75342857D02*
X157502438Y-75438095D01*
X157502438Y-75438095D02*
X157550057Y-75485714D01*
X157550057Y-75485714D02*
X157645295Y-75533333D01*
X157645295Y-75533333D02*
X157788152Y-75533333D01*
X157788152Y-75533333D02*
X157883390Y-75485714D01*
X157883390Y-75485714D02*
X157931009Y-75438095D01*
X157931009Y-75438095D02*
X157978628Y-75342857D01*
X157978628Y-75342857D02*
X157978628Y-74961905D01*
X158454819Y-76009524D02*
X158454819Y-76200000D01*
X158454819Y-76200000D02*
X158407200Y-76295238D01*
X158407200Y-76295238D02*
X158359580Y-76342857D01*
X158359580Y-76342857D02*
X158216723Y-76438095D01*
X158216723Y-76438095D02*
X158026247Y-76485714D01*
X158026247Y-76485714D02*
X157645295Y-76485714D01*
X157645295Y-76485714D02*
X157550057Y-76438095D01*
X157550057Y-76438095D02*
X157502438Y-76390476D01*
X157502438Y-76390476D02*
X157454819Y-76295238D01*
X157454819Y-76295238D02*
X157454819Y-76104762D01*
X157454819Y-76104762D02*
X157502438Y-76009524D01*
X157502438Y-76009524D02*
X157550057Y-75961905D01*
X157550057Y-75961905D02*
X157645295Y-75914286D01*
X157645295Y-75914286D02*
X157883390Y-75914286D01*
X157883390Y-75914286D02*
X157978628Y-75961905D01*
X157978628Y-75961905D02*
X158026247Y-76009524D01*
X158026247Y-76009524D02*
X158073866Y-76104762D01*
X158073866Y-76104762D02*
X158073866Y-76295238D01*
X158073866Y-76295238D02*
X158026247Y-76390476D01*
X158026247Y-76390476D02*
X157978628Y-76438095D01*
X157978628Y-76438095D02*
X157883390Y-76485714D01*
X112060057Y-97000000D02*
X112012438Y-97047619D01*
X112012438Y-97047619D02*
X111964819Y-97142857D01*
X111964819Y-97142857D02*
X111964819Y-97380952D01*
X111964819Y-97380952D02*
X112012438Y-97476190D01*
X112012438Y-97476190D02*
X112060057Y-97523809D01*
X112060057Y-97523809D02*
X112155295Y-97571428D01*
X112155295Y-97571428D02*
X112250533Y-97571428D01*
X112250533Y-97571428D02*
X112393390Y-97523809D01*
X112393390Y-97523809D02*
X112964819Y-96952381D01*
X112964819Y-96952381D02*
X112964819Y-97571428D01*
X112869580Y-98000000D02*
X112917200Y-98047619D01*
X112917200Y-98047619D02*
X112964819Y-98000000D01*
X112964819Y-98000000D02*
X112917200Y-97952381D01*
X112917200Y-97952381D02*
X112869580Y-98000000D01*
X112869580Y-98000000D02*
X112964819Y-98000000D01*
X112060057Y-98428571D02*
X112012438Y-98476190D01*
X112012438Y-98476190D02*
X111964819Y-98571428D01*
X111964819Y-98571428D02*
X111964819Y-98809523D01*
X111964819Y-98809523D02*
X112012438Y-98904761D01*
X112012438Y-98904761D02*
X112060057Y-98952380D01*
X112060057Y-98952380D02*
X112155295Y-98999999D01*
X112155295Y-98999999D02*
X112250533Y-98999999D01*
X112250533Y-98999999D02*
X112393390Y-98952380D01*
X112393390Y-98952380D02*
X112964819Y-98380952D01*
X112964819Y-98380952D02*
X112964819Y-98999999D01*
X112964819Y-99428571D02*
X111964819Y-99428571D01*
X112964819Y-99999999D02*
X112393390Y-99571428D01*
X111964819Y-99999999D02*
X112536247Y-99428571D01*
X115334819Y-98333333D02*
X114858628Y-98000000D01*
X115334819Y-97761905D02*
X114334819Y-97761905D01*
X114334819Y-97761905D02*
X114334819Y-98142857D01*
X114334819Y-98142857D02*
X114382438Y-98238095D01*
X114382438Y-98238095D02*
X114430057Y-98285714D01*
X114430057Y-98285714D02*
X114525295Y-98333333D01*
X114525295Y-98333333D02*
X114668152Y-98333333D01*
X114668152Y-98333333D02*
X114763390Y-98285714D01*
X114763390Y-98285714D02*
X114811009Y-98238095D01*
X114811009Y-98238095D02*
X114858628Y-98142857D01*
X114858628Y-98142857D02*
X114858628Y-97761905D01*
X114334819Y-98666667D02*
X114334819Y-99285714D01*
X114334819Y-99285714D02*
X114715771Y-98952381D01*
X114715771Y-98952381D02*
X114715771Y-99095238D01*
X114715771Y-99095238D02*
X114763390Y-99190476D01*
X114763390Y-99190476D02*
X114811009Y-99238095D01*
X114811009Y-99238095D02*
X114906247Y-99285714D01*
X114906247Y-99285714D02*
X115144342Y-99285714D01*
X115144342Y-99285714D02*
X115239580Y-99238095D01*
X115239580Y-99238095D02*
X115287200Y-99190476D01*
X115287200Y-99190476D02*
X115334819Y-99095238D01*
X115334819Y-99095238D02*
X115334819Y-98809524D01*
X115334819Y-98809524D02*
X115287200Y-98714286D01*
X115287200Y-98714286D02*
X115239580Y-98666667D01*
X126254819Y-97469523D02*
X126254819Y-96898095D01*
X126254819Y-97183809D02*
X125254819Y-97183809D01*
X125254819Y-97183809D02*
X125397676Y-97088571D01*
X125397676Y-97088571D02*
X125492914Y-96993333D01*
X125492914Y-96993333D02*
X125540533Y-96898095D01*
X125254819Y-98088571D02*
X125254819Y-98183809D01*
X125254819Y-98183809D02*
X125302438Y-98279047D01*
X125302438Y-98279047D02*
X125350057Y-98326666D01*
X125350057Y-98326666D02*
X125445295Y-98374285D01*
X125445295Y-98374285D02*
X125635771Y-98421904D01*
X125635771Y-98421904D02*
X125873866Y-98421904D01*
X125873866Y-98421904D02*
X126064342Y-98374285D01*
X126064342Y-98374285D02*
X126159580Y-98326666D01*
X126159580Y-98326666D02*
X126207200Y-98279047D01*
X126207200Y-98279047D02*
X126254819Y-98183809D01*
X126254819Y-98183809D02*
X126254819Y-98088571D01*
X126254819Y-98088571D02*
X126207200Y-97993333D01*
X126207200Y-97993333D02*
X126159580Y-97945714D01*
X126159580Y-97945714D02*
X126064342Y-97898095D01*
X126064342Y-97898095D02*
X125873866Y-97850476D01*
X125873866Y-97850476D02*
X125635771Y-97850476D01*
X125635771Y-97850476D02*
X125445295Y-97898095D01*
X125445295Y-97898095D02*
X125350057Y-97945714D01*
X125350057Y-97945714D02*
X125302438Y-97993333D01*
X125302438Y-97993333D02*
X125254819Y-98088571D01*
X126254819Y-98850476D02*
X125254819Y-98850476D01*
X126254819Y-99421904D02*
X125683390Y-98993333D01*
X125254819Y-99421904D02*
X125826247Y-98850476D01*
X128624819Y-97993333D02*
X128148628Y-97660000D01*
X128624819Y-97421905D02*
X127624819Y-97421905D01*
X127624819Y-97421905D02*
X127624819Y-97802857D01*
X127624819Y-97802857D02*
X127672438Y-97898095D01*
X127672438Y-97898095D02*
X127720057Y-97945714D01*
X127720057Y-97945714D02*
X127815295Y-97993333D01*
X127815295Y-97993333D02*
X127958152Y-97993333D01*
X127958152Y-97993333D02*
X128053390Y-97945714D01*
X128053390Y-97945714D02*
X128101009Y-97898095D01*
X128101009Y-97898095D02*
X128148628Y-97802857D01*
X128148628Y-97802857D02*
X128148628Y-97421905D01*
X128053390Y-98564762D02*
X128005771Y-98469524D01*
X128005771Y-98469524D02*
X127958152Y-98421905D01*
X127958152Y-98421905D02*
X127862914Y-98374286D01*
X127862914Y-98374286D02*
X127815295Y-98374286D01*
X127815295Y-98374286D02*
X127720057Y-98421905D01*
X127720057Y-98421905D02*
X127672438Y-98469524D01*
X127672438Y-98469524D02*
X127624819Y-98564762D01*
X127624819Y-98564762D02*
X127624819Y-98755238D01*
X127624819Y-98755238D02*
X127672438Y-98850476D01*
X127672438Y-98850476D02*
X127720057Y-98898095D01*
X127720057Y-98898095D02*
X127815295Y-98945714D01*
X127815295Y-98945714D02*
X127862914Y-98945714D01*
X127862914Y-98945714D02*
X127958152Y-98898095D01*
X127958152Y-98898095D02*
X128005771Y-98850476D01*
X128005771Y-98850476D02*
X128053390Y-98755238D01*
X128053390Y-98755238D02*
X128053390Y-98564762D01*
X128053390Y-98564762D02*
X128101009Y-98469524D01*
X128101009Y-98469524D02*
X128148628Y-98421905D01*
X128148628Y-98421905D02*
X128243866Y-98374286D01*
X128243866Y-98374286D02*
X128434342Y-98374286D01*
X128434342Y-98374286D02*
X128529580Y-98421905D01*
X128529580Y-98421905D02*
X128577200Y-98469524D01*
X128577200Y-98469524D02*
X128624819Y-98564762D01*
X128624819Y-98564762D02*
X128624819Y-98755238D01*
X128624819Y-98755238D02*
X128577200Y-98850476D01*
X128577200Y-98850476D02*
X128529580Y-98898095D01*
X128529580Y-98898095D02*
X128434342Y-98945714D01*
X128434342Y-98945714D02*
X128243866Y-98945714D01*
X128243866Y-98945714D02*
X128148628Y-98898095D01*
X128148628Y-98898095D02*
X128101009Y-98850476D01*
X128101009Y-98850476D02*
X128053390Y-98755238D01*
X108580057Y-96900000D02*
X108532438Y-96947619D01*
X108532438Y-96947619D02*
X108484819Y-97042857D01*
X108484819Y-97042857D02*
X108484819Y-97280952D01*
X108484819Y-97280952D02*
X108532438Y-97376190D01*
X108532438Y-97376190D02*
X108580057Y-97423809D01*
X108580057Y-97423809D02*
X108675295Y-97471428D01*
X108675295Y-97471428D02*
X108770533Y-97471428D01*
X108770533Y-97471428D02*
X108913390Y-97423809D01*
X108913390Y-97423809D02*
X109484819Y-96852381D01*
X109484819Y-96852381D02*
X109484819Y-97471428D01*
X109389580Y-97900000D02*
X109437200Y-97947619D01*
X109437200Y-97947619D02*
X109484819Y-97900000D01*
X109484819Y-97900000D02*
X109437200Y-97852381D01*
X109437200Y-97852381D02*
X109389580Y-97900000D01*
X109389580Y-97900000D02*
X109484819Y-97900000D01*
X108580057Y-98328571D02*
X108532438Y-98376190D01*
X108532438Y-98376190D02*
X108484819Y-98471428D01*
X108484819Y-98471428D02*
X108484819Y-98709523D01*
X108484819Y-98709523D02*
X108532438Y-98804761D01*
X108532438Y-98804761D02*
X108580057Y-98852380D01*
X108580057Y-98852380D02*
X108675295Y-98899999D01*
X108675295Y-98899999D02*
X108770533Y-98899999D01*
X108770533Y-98899999D02*
X108913390Y-98852380D01*
X108913390Y-98852380D02*
X109484819Y-98280952D01*
X109484819Y-98280952D02*
X109484819Y-98899999D01*
X109484819Y-99328571D02*
X108484819Y-99328571D01*
X109484819Y-99899999D02*
X108913390Y-99471428D01*
X108484819Y-99899999D02*
X109056247Y-99328571D01*
X111854819Y-98233333D02*
X111378628Y-97900000D01*
X111854819Y-97661905D02*
X110854819Y-97661905D01*
X110854819Y-97661905D02*
X110854819Y-98042857D01*
X110854819Y-98042857D02*
X110902438Y-98138095D01*
X110902438Y-98138095D02*
X110950057Y-98185714D01*
X110950057Y-98185714D02*
X111045295Y-98233333D01*
X111045295Y-98233333D02*
X111188152Y-98233333D01*
X111188152Y-98233333D02*
X111283390Y-98185714D01*
X111283390Y-98185714D02*
X111331009Y-98138095D01*
X111331009Y-98138095D02*
X111378628Y-98042857D01*
X111378628Y-98042857D02*
X111378628Y-97661905D01*
X111854819Y-99185714D02*
X111854819Y-98614286D01*
X111854819Y-98900000D02*
X110854819Y-98900000D01*
X110854819Y-98900000D02*
X110997676Y-98804762D01*
X110997676Y-98804762D02*
X111092914Y-98709524D01*
X111092914Y-98709524D02*
X111140533Y-98614286D01*
X137484819Y-97409523D02*
X137484819Y-96838095D01*
X137484819Y-97123809D02*
X136484819Y-97123809D01*
X136484819Y-97123809D02*
X136627676Y-97028571D01*
X136627676Y-97028571D02*
X136722914Y-96933333D01*
X136722914Y-96933333D02*
X136770533Y-96838095D01*
X136484819Y-98028571D02*
X136484819Y-98123809D01*
X136484819Y-98123809D02*
X136532438Y-98219047D01*
X136532438Y-98219047D02*
X136580057Y-98266666D01*
X136580057Y-98266666D02*
X136675295Y-98314285D01*
X136675295Y-98314285D02*
X136865771Y-98361904D01*
X136865771Y-98361904D02*
X137103866Y-98361904D01*
X137103866Y-98361904D02*
X137294342Y-98314285D01*
X137294342Y-98314285D02*
X137389580Y-98266666D01*
X137389580Y-98266666D02*
X137437200Y-98219047D01*
X137437200Y-98219047D02*
X137484819Y-98123809D01*
X137484819Y-98123809D02*
X137484819Y-98028571D01*
X137484819Y-98028571D02*
X137437200Y-97933333D01*
X137437200Y-97933333D02*
X137389580Y-97885714D01*
X137389580Y-97885714D02*
X137294342Y-97838095D01*
X137294342Y-97838095D02*
X137103866Y-97790476D01*
X137103866Y-97790476D02*
X136865771Y-97790476D01*
X136865771Y-97790476D02*
X136675295Y-97838095D01*
X136675295Y-97838095D02*
X136580057Y-97885714D01*
X136580057Y-97885714D02*
X136532438Y-97933333D01*
X136532438Y-97933333D02*
X136484819Y-98028571D01*
X137484819Y-98790476D02*
X136484819Y-98790476D01*
X137484819Y-99361904D02*
X136913390Y-98933333D01*
X136484819Y-99361904D02*
X137056247Y-98790476D01*
X139854819Y-97933333D02*
X139378628Y-97600000D01*
X139854819Y-97361905D02*
X138854819Y-97361905D01*
X138854819Y-97361905D02*
X138854819Y-97742857D01*
X138854819Y-97742857D02*
X138902438Y-97838095D01*
X138902438Y-97838095D02*
X138950057Y-97885714D01*
X138950057Y-97885714D02*
X139045295Y-97933333D01*
X139045295Y-97933333D02*
X139188152Y-97933333D01*
X139188152Y-97933333D02*
X139283390Y-97885714D01*
X139283390Y-97885714D02*
X139331009Y-97838095D01*
X139331009Y-97838095D02*
X139378628Y-97742857D01*
X139378628Y-97742857D02*
X139378628Y-97361905D01*
X138854819Y-98838095D02*
X138854819Y-98361905D01*
X138854819Y-98361905D02*
X139331009Y-98314286D01*
X139331009Y-98314286D02*
X139283390Y-98361905D01*
X139283390Y-98361905D02*
X139235771Y-98457143D01*
X139235771Y-98457143D02*
X139235771Y-98695238D01*
X139235771Y-98695238D02*
X139283390Y-98790476D01*
X139283390Y-98790476D02*
X139331009Y-98838095D01*
X139331009Y-98838095D02*
X139426247Y-98885714D01*
X139426247Y-98885714D02*
X139664342Y-98885714D01*
X139664342Y-98885714D02*
X139759580Y-98838095D01*
X139759580Y-98838095D02*
X139807200Y-98790476D01*
X139807200Y-98790476D02*
X139854819Y-98695238D01*
X139854819Y-98695238D02*
X139854819Y-98457143D01*
X139854819Y-98457143D02*
X139807200Y-98361905D01*
X139807200Y-98361905D02*
X139759580Y-98314286D01*
X134484819Y-97409523D02*
X134484819Y-96838095D01*
X134484819Y-97123809D02*
X133484819Y-97123809D01*
X133484819Y-97123809D02*
X133627676Y-97028571D01*
X133627676Y-97028571D02*
X133722914Y-96933333D01*
X133722914Y-96933333D02*
X133770533Y-96838095D01*
X133484819Y-98028571D02*
X133484819Y-98123809D01*
X133484819Y-98123809D02*
X133532438Y-98219047D01*
X133532438Y-98219047D02*
X133580057Y-98266666D01*
X133580057Y-98266666D02*
X133675295Y-98314285D01*
X133675295Y-98314285D02*
X133865771Y-98361904D01*
X133865771Y-98361904D02*
X134103866Y-98361904D01*
X134103866Y-98361904D02*
X134294342Y-98314285D01*
X134294342Y-98314285D02*
X134389580Y-98266666D01*
X134389580Y-98266666D02*
X134437200Y-98219047D01*
X134437200Y-98219047D02*
X134484819Y-98123809D01*
X134484819Y-98123809D02*
X134484819Y-98028571D01*
X134484819Y-98028571D02*
X134437200Y-97933333D01*
X134437200Y-97933333D02*
X134389580Y-97885714D01*
X134389580Y-97885714D02*
X134294342Y-97838095D01*
X134294342Y-97838095D02*
X134103866Y-97790476D01*
X134103866Y-97790476D02*
X133865771Y-97790476D01*
X133865771Y-97790476D02*
X133675295Y-97838095D01*
X133675295Y-97838095D02*
X133580057Y-97885714D01*
X133580057Y-97885714D02*
X133532438Y-97933333D01*
X133532438Y-97933333D02*
X133484819Y-98028571D01*
X134484819Y-98790476D02*
X133484819Y-98790476D01*
X134484819Y-99361904D02*
X133913390Y-98933333D01*
X133484819Y-99361904D02*
X134056247Y-98790476D01*
X136854819Y-97933333D02*
X136378628Y-97600000D01*
X136854819Y-97361905D02*
X135854819Y-97361905D01*
X135854819Y-97361905D02*
X135854819Y-97742857D01*
X135854819Y-97742857D02*
X135902438Y-97838095D01*
X135902438Y-97838095D02*
X135950057Y-97885714D01*
X135950057Y-97885714D02*
X136045295Y-97933333D01*
X136045295Y-97933333D02*
X136188152Y-97933333D01*
X136188152Y-97933333D02*
X136283390Y-97885714D01*
X136283390Y-97885714D02*
X136331009Y-97838095D01*
X136331009Y-97838095D02*
X136378628Y-97742857D01*
X136378628Y-97742857D02*
X136378628Y-97361905D01*
X135854819Y-98790476D02*
X135854819Y-98600000D01*
X135854819Y-98600000D02*
X135902438Y-98504762D01*
X135902438Y-98504762D02*
X135950057Y-98457143D01*
X135950057Y-98457143D02*
X136092914Y-98361905D01*
X136092914Y-98361905D02*
X136283390Y-98314286D01*
X136283390Y-98314286D02*
X136664342Y-98314286D01*
X136664342Y-98314286D02*
X136759580Y-98361905D01*
X136759580Y-98361905D02*
X136807200Y-98409524D01*
X136807200Y-98409524D02*
X136854819Y-98504762D01*
X136854819Y-98504762D02*
X136854819Y-98695238D01*
X136854819Y-98695238D02*
X136807200Y-98790476D01*
X136807200Y-98790476D02*
X136759580Y-98838095D01*
X136759580Y-98838095D02*
X136664342Y-98885714D01*
X136664342Y-98885714D02*
X136426247Y-98885714D01*
X136426247Y-98885714D02*
X136331009Y-98838095D01*
X136331009Y-98838095D02*
X136283390Y-98790476D01*
X136283390Y-98790476D02*
X136235771Y-98695238D01*
X136235771Y-98695238D02*
X136235771Y-98504762D01*
X136235771Y-98504762D02*
X136283390Y-98409524D01*
X136283390Y-98409524D02*
X136331009Y-98361905D01*
X136331009Y-98361905D02*
X136426247Y-98314286D01*
D11*
%TO.C,R10*%
X158000000Y-86800000D02*
X158000000Y-87460000D01*
X158000000Y-94420000D02*
X158000000Y-93760000D01*
X156750000Y-87460000D02*
X159250000Y-87460000D01*
X159250000Y-93760000D01*
X156750000Y-93760000D01*
X156750000Y-87460000D01*
%TO.C,R4*%
X123080000Y-94690000D02*
X123080000Y-95350000D01*
X123080000Y-102310000D02*
X123080000Y-101650000D01*
X124330000Y-101650000D02*
X121830000Y-101650000D01*
X121830000Y-95350000D01*
X124330000Y-95350000D01*
X124330000Y-101650000D01*
%TO.C,R7*%
X131200000Y-94350000D02*
X131200000Y-95010000D01*
X131200000Y-101970000D02*
X131200000Y-101310000D01*
X132450000Y-101310000D02*
X129950000Y-101310000D01*
X129950000Y-95010000D01*
X132450000Y-95010000D01*
X132450000Y-101310000D01*
%TO.C,R11*%
X158000000Y-98780000D02*
X158000000Y-99440000D01*
X158000000Y-106400000D02*
X158000000Y-105740000D01*
X159250000Y-105740000D02*
X156750000Y-105740000D01*
X156750000Y-99440000D01*
X159250000Y-99440000D01*
X159250000Y-105740000D01*
%TO.C,R2*%
X120080000Y-94690000D02*
X120080000Y-95350000D01*
X120080000Y-102310000D02*
X120080000Y-101650000D01*
X121330000Y-101650000D02*
X118830000Y-101650000D01*
X118830000Y-95350000D01*
X121330000Y-95350000D01*
X121330000Y-101650000D01*
%TO.C,R9*%
X158000000Y-71890000D02*
X158000000Y-72550000D01*
X158000000Y-79510000D02*
X158000000Y-78850000D01*
X156750000Y-72550000D02*
X159250000Y-72550000D01*
X159250000Y-78850000D01*
X156750000Y-78850000D01*
X156750000Y-72550000D01*
%TO.C,R3*%
X114880000Y-94690000D02*
X114880000Y-95350000D01*
X114880000Y-102310000D02*
X114880000Y-101650000D01*
X116130000Y-101650000D02*
X113630000Y-101650000D01*
X113630000Y-95350000D01*
X116130000Y-95350000D01*
X116130000Y-101650000D01*
%TO.C,R8*%
X128170000Y-94350000D02*
X128170000Y-95010000D01*
X128170000Y-101970000D02*
X128170000Y-101310000D01*
X129420000Y-101310000D02*
X126920000Y-101310000D01*
X126920000Y-95010000D01*
X129420000Y-95010000D01*
X129420000Y-101310000D01*
%TO.C,R1*%
X111400000Y-94590000D02*
X111400000Y-95250000D01*
X111400000Y-102210000D02*
X111400000Y-101550000D01*
X112650000Y-101550000D02*
X110150000Y-101550000D01*
X110150000Y-95250000D01*
X112650000Y-95250000D01*
X112650000Y-101550000D01*
%TO.C,R5*%
X139400000Y-94290000D02*
X139400000Y-94950000D01*
X139400000Y-101910000D02*
X139400000Y-101250000D01*
X140650000Y-101250000D02*
X138150000Y-101250000D01*
X138150000Y-94950000D01*
X140650000Y-94950000D01*
X140650000Y-101250000D01*
%TO.C,R6*%
X136400000Y-94290000D02*
X136400000Y-94950000D01*
X136400000Y-101910000D02*
X136400000Y-101250000D01*
X137650000Y-101250000D02*
X135150000Y-101250000D01*
X135150000Y-94950000D01*
X137650000Y-94950000D01*
X137650000Y-101250000D01*
%TD*%
M02*
