M48
; DRILL file {KiCad 9.0.7} date 2026-03-27T19:37:04-0700
; FORMAT={-:-/ absolute / metric / decimal}
; #@! TF.CreationDate,2026-03-27T19:37:04-07:00
; #@! TF.GenerationSoftware,Kicad,Pcbnew,9.0.7
; #@! TF.FileFunction,Plated,1,6,PTH
FMAT,2
METRIC
; #@! TA.AperFunction,Plated,PTH,ViaDrill
T1C0.300
; #@! TA.AperFunction,Plated,PTH,ComponentDrill
T2C0.700
; #@! TA.AperFunction,Plated,PTH,ComponentDrill
T3C0.750
; #@! TA.AperFunction,Plated,PTH,ComponentDrill
T4C0.800
; #@! TA.AperFunction,Plated,PTH,ComponentDrill
T5C1.000
; #@! TA.AperFunction,Plated,PTH,ComponentDrill
T6C1.100
; #@! TA.AperFunction,Plated,PTH,ComponentDrill
T7C1.300
; #@! TA.AperFunction,Plated,PTH,ComponentDrill
T8C2.500
%
G90
G05
T1
X68.6Y-75.1
X68.6Y-80.1
X68.6Y-85.1
X68.6Y-90.1
X68.6Y-95.1
X68.6Y-100.1
X68.6Y-105.2
X68.6Y-115.2
X72.5Y-117.3
X73.2Y-64.9
X78.2Y-64.9
X83.2Y-64.9
X87.8Y-76.8
X87.8Y-81.8
X87.8Y-86.8
X87.8Y-91.8
X87.8Y-96.9
X87.8Y-101.9
X87.8Y-106.9
X88.3Y-64.9
X92.6Y-120.9
X93.3Y-64.9
X97.6Y-120.9
X98.3Y-64.9
X102.6Y-120.9
X103.3Y-64.9
X107.7Y-120.9
X108.3Y-64.9
X112.7Y-120.9
X113.3Y-64.9
X117.7Y-120.9
X118.4Y-64.9
X122.7Y-120.9
X123.4Y-64.9
X127.7Y-120.9
X128.4Y-64.9
X131.8Y-90.9
X132.7Y-120.9
X133.3Y-64.9
X137.8Y-120.9
X138.3Y-64.9
X142.8Y-120.9
X143.3Y-64.8
X147.8Y-120.9
X148.2Y-64.8
X148.9Y-109.625
X149.7Y-109.0
X151.82Y-89.12
X152.6Y-77.6
X152.6Y-100.1
X152.7Y-120.9
X153.2Y-64.8
X157.7Y-120.9
X159.6Y-68.7
X159.6Y-73.7
X159.7Y-77.7
X159.8Y-81.8
X159.8Y-85.0
X159.8Y-90.0
X159.9Y-94.0
X159.9Y-102.2
X159.9Y-107.2
X160.0Y-98.1
X161.8Y-68.9
X161.8Y-73.9
X161.9Y-77.9
X162.0Y-82.0
X162.0Y-85.2
X162.0Y-90.2
X162.1Y-94.2
X162.1Y-102.4
X162.2Y-98.3
X162.3Y-106.5
X162.3Y-109.1
X162.7Y-120.9
X163.0Y-64.2
X166.3Y-96.1
X167.4Y-109.2
X167.6Y-105.4
X167.7Y-64.2
X167.7Y-120.9
X170.9Y-106.1
X172.6Y-64.2
X172.7Y-120.9
X173.4Y-103.8
X174.97Y-86.6
X175.4Y-106.1
X177.6Y-89.6
X177.6Y-120.9
X178.0Y-103.7
X181.0Y-106.1
X181.4Y-85.3
X182.6Y-120.9
X182.8Y-64.8
X183.1Y-103.6
X184.8Y-69.4
X187.5Y-103.2
X187.5Y-106.2
X187.6Y-71.3
X187.7Y-75.3
X187.7Y-110.7
X187.7Y-114.7
X187.8Y-79.4
X187.8Y-82.6
X187.8Y-87.6
X187.9Y-91.6
X187.9Y-99.8
X188.0Y-95.7
T2
X74.1Y-68.8
X82.8Y-68.8
X92.7Y-68.1
X165.7Y-68.4
X170.6Y-68.2
X185.2Y-73.9
T3
X112.72Y-117.74
X114.0Y-76.9
X114.72Y-117.74
X116.0Y-76.9
X116.72Y-117.74
X118.0Y-76.9
X118.72Y-117.74
X120.0Y-76.9
X122.0Y-76.9
X127.4Y-77.0
X129.4Y-77.0
X131.4Y-77.0
X133.4Y-77.0
X135.4Y-77.0
X137.4Y-77.0
X139.4Y-77.0
X165.02Y-117.84
X167.02Y-117.84
X169.02Y-117.84
X171.02Y-117.84
X174.43Y-73.96
X175.7Y-73.96
X176.97Y-73.96
X178.48Y-108.6
X178.48Y-110.6
X178.48Y-112.6
X184.05Y-87.7
X184.05Y-89.7
X184.05Y-91.7
X184.3Y-108.6
X184.3Y-110.6
X184.3Y-112.6
T4
X93.5Y-104.0
X93.5Y-109.0
X96.0Y-76.7
X98.5Y-76.7
X101.6Y-82.7
X103.7Y-73.7
X103.7Y-78.7
X106.6Y-82.7
X111.4Y-94.59
X111.4Y-102.21
X113.7Y-110.5
X114.88Y-94.69
X114.88Y-102.31
X118.0Y-82.3
X118.7Y-110.5
X120.08Y-94.69
X120.08Y-102.31
X123.0Y-82.3
X123.08Y-94.69
X123.08Y-102.31
X128.17Y-94.35
X128.17Y-101.97
X131.2Y-94.35
X131.2Y-101.97
X134.6Y-82.6
X136.4Y-94.29
X136.4Y-101.91
X139.4Y-94.29
X139.4Y-101.91
X139.6Y-82.6
X146.5Y-80.055
X146.5Y-82.055
X150.9Y-68.245
X150.9Y-70.245
X151.7Y-102.1
X151.7Y-107.1
X158.0Y-71.89
X158.0Y-79.51
X158.0Y-86.8
X158.0Y-94.42
X158.0Y-98.78
X158.0Y-106.4
X163.4Y-111.2
X166.89Y-98.7
X167.1Y-102.3
X168.1Y-79.0
X168.1Y-84.0
X168.4Y-111.2
X168.5Y-73.8
X168.9Y-87.49
X168.9Y-95.11
X170.5Y-73.8
X170.896Y-108.0
X172.1Y-78.29
X172.1Y-85.91
X172.1Y-102.3
X172.8Y-88.1
X172.8Y-93.1
X173.396Y-108.0
X174.51Y-98.7
X175.7Y-65.0
X175.7Y-70.0
X176.6Y-77.29
X176.6Y-84.91
X178.69Y-98.1
X178.69Y-101.5
X179.4Y-65.0
X179.4Y-70.0
X179.7Y-77.1
X184.7Y-77.1
X186.31Y-98.1
X186.31Y-101.5
T5
X75.59Y-120.98
X75.6Y-115.9
X96.9Y-113.8
X96.9Y-116.34
X99.08Y-87.2
X99.08Y-104.98
X99.44Y-113.8
X99.44Y-116.34
X101.62Y-87.2
X101.62Y-104.98
X101.98Y-113.8
X101.98Y-116.34
X104.16Y-87.2
X104.16Y-104.98
X104.52Y-113.8
X104.52Y-116.34
X106.7Y-87.2
X106.7Y-104.98
X109.24Y-87.2
X109.24Y-104.98
X111.78Y-87.2
X111.78Y-104.98
X114.32Y-87.2
X114.32Y-104.98
X116.86Y-87.2
X116.86Y-104.98
X119.4Y-87.2
X119.4Y-104.98
X121.94Y-87.2
X121.94Y-104.98
X124.48Y-87.2
X124.48Y-104.98
X127.02Y-87.2
X127.02Y-104.98
X129.56Y-87.2
X129.56Y-104.98
X132.1Y-87.2
X132.1Y-104.98
X134.64Y-87.2
X134.64Y-104.98
X137.18Y-87.2
X137.18Y-104.98
X139.72Y-87.2
X139.72Y-104.98
X142.26Y-87.2
X142.26Y-104.98
X144.8Y-87.2
X144.8Y-104.98
X147.34Y-87.2
X147.34Y-104.98
X149.1Y-113.8
X149.1Y-116.34
X151.64Y-113.8
X151.64Y-116.34
X154.18Y-113.8
X154.18Y-116.34
X155.96Y-66.0
X156.72Y-113.8
X156.72Y-116.34
X158.5Y-66.0
X163.58Y-66.0
X168.66Y-66.0
T6
X98.22Y-71.0
X100.76Y-71.0
X103.3Y-71.0
X123.62Y-116.34
X126.16Y-116.34
X128.7Y-116.34
X131.24Y-116.34
X133.78Y-116.34
X136.32Y-116.34
X138.86Y-116.34
X141.4Y-116.34
T7
X69.9Y-71.8
X69.9Y-112.1
X87.4Y-71.8
X87.4Y-112.1
T8
X80.7Y-118.9
X88.5Y-118.9
M30
