%TF.GenerationSoftware,KiCad,Pcbnew,9.0.7*%
%TF.CreationDate,2026-03-27T19:36:20-07:00*%
%TF.ProjectId,Wiper_Servo_Controller,57697065-725f-4536-9572-766f5f436f6e,rev?*%
%TF.SameCoordinates,Original*%
%TF.FileFunction,Soldermask,Bot*%
%TF.FilePolarity,Negative*%
%FSLAX46Y46*%
G04 Gerber Fmt 4.6, Leading zero omitted, Abs format (unit mm)*
G04 Created by KiCad (PCBNEW 9.0.7) date 2026-03-27 19:36:20*
%MOMM*%
%LPD*%
G01*
G04 APERTURE LIST*
G04 Aperture macros list*
%AMRoundRect*
0 Rectangle with rounded corners*
0 $1 Rounding radius*
0 $2 $3 $4 $5 $6 $7 $8 $9 X,Y pos of 4 corners*
0 Add a 4 corners polygon primitive as box body*
4,1,4,$2,$3,$4,$5,$6,$7,$8,$9,$2,$3,0*
0 Add four circle primitives for the rounded corners*
1,1,$1+$1,$2,$3*
1,1,$1+$1,$4,$5*
1,1,$1+$1,$6,$7*
1,1,$1+$1,$8,$9*
0 Add four rect primitives between the rounded corners*
20,1,$1+$1,$2,$3,$4,$5,0*
20,1,$1+$1,$4,$5,$6,$7,0*
20,1,$1+$1,$6,$7,$8,$9,0*
20,1,$1+$1,$8,$9,$2,$3,0*%
%AMFreePoly0*
4,1,37,0.603843,0.796157,0.639018,0.796157,0.711114,0.766294,0.766294,0.711114,0.796157,0.639018,0.796157,0.603843,0.800000,0.600000,0.800000,-0.600000,0.796157,-0.603843,0.796157,-0.639018,0.766294,-0.711114,0.711114,-0.766294,0.639018,-0.796157,0.603843,-0.796157,0.600000,-0.800000,0.000000,-0.800000,0.000000,-0.796148,-0.078414,-0.796148,-0.232228,-0.765552,-0.377117,-0.705537,
-0.507515,-0.618408,-0.618408,-0.507515,-0.705537,-0.377117,-0.765552,-0.232228,-0.796148,-0.078414,-0.796148,0.078414,-0.765552,0.232228,-0.705537,0.377117,-0.618408,0.507515,-0.507515,0.618408,-0.377117,0.705537,-0.232228,0.765552,-0.078414,0.796148,0.000000,0.796148,0.000000,0.800000,0.600000,0.800000,0.603843,0.796157,0.603843,0.796157,$1*%
%AMFreePoly1*
4,1,37,0.000000,0.796148,0.078414,0.796148,0.232228,0.765552,0.377117,0.705537,0.507515,0.618408,0.618408,0.507515,0.705537,0.377117,0.765552,0.232228,0.796148,0.078414,0.796148,-0.078414,0.765552,-0.232228,0.705537,-0.377117,0.618408,-0.507515,0.507515,-0.618408,0.377117,-0.705537,0.232228,-0.765552,0.078414,-0.796148,0.000000,-0.796148,0.000000,-0.800000,-0.600000,-0.800000,
-0.603843,-0.796157,-0.639018,-0.796157,-0.711114,-0.766294,-0.766294,-0.711114,-0.796157,-0.639018,-0.796157,-0.603843,-0.800000,-0.600000,-0.800000,0.600000,-0.796157,0.603843,-0.796157,0.639018,-0.766294,0.711114,-0.711114,0.766294,-0.639018,0.796157,-0.603843,0.796157,-0.600000,0.800000,0.000000,0.800000,0.000000,0.796148,0.000000,0.796148,$1*%
G04 Aperture macros list end*
%ADD10RoundRect,0.250000X0.625000X-0.350000X0.625000X0.350000X-0.625000X0.350000X-0.625000X-0.350000X0*%
%ADD11O,1.750000X1.200000*%
%ADD12RoundRect,0.250000X-0.625000X0.350000X-0.625000X-0.350000X0.625000X-0.350000X0.625000X0.350000X0*%
%ADD13C,1.600000*%
%ADD14RoundRect,0.249999X-0.850001X-0.850001X0.850001X-0.850001X0.850001X0.850001X-0.850001X0.850001X0*%
%ADD15C,2.200000*%
%ADD16RoundRect,0.102000X-0.754000X-0.754000X0.754000X-0.754000X0.754000X0.754000X-0.754000X0.754000X0*%
%ADD17C,1.712000*%
%ADD18RoundRect,0.250000X0.550000X-0.550000X0.550000X0.550000X-0.550000X0.550000X-0.550000X-0.550000X0*%
%ADD19RoundRect,0.250000X0.550000X0.550000X-0.550000X0.550000X-0.550000X-0.550000X0.550000X-0.550000X0*%
%ADD20C,1.500000*%
%ADD21R,1.050000X1.500000*%
%ADD22O,1.050000X1.500000*%
%ADD23C,3.200000*%
%ADD24RoundRect,0.250000X0.600000X-0.600000X0.600000X0.600000X-0.600000X0.600000X-0.600000X-0.600000X0*%
%ADD25C,1.700000*%
%ADD26RoundRect,0.250002X1.699998X1.699998X-1.699998X1.699998X-1.699998X-1.699998X1.699998X-1.699998X0*%
%ADD27C,3.900000*%
%ADD28RoundRect,0.250000X0.350000X0.625000X-0.350000X0.625000X-0.350000X-0.625000X0.350000X-0.625000X0*%
%ADD29O,1.200000X1.750000*%
%ADD30R,3.000000X3.000000*%
%ADD31C,2.000000*%
%ADD32R,1.905000X2.000000*%
%ADD33O,1.905000X2.000000*%
%ADD34RoundRect,0.200000X0.600000X-0.600000X0.600000X0.600000X-0.600000X0.600000X-0.600000X-0.600000X0*%
%ADD35FreePoly0,90.000000*%
%ADD36FreePoly1,90.000000*%
%ADD37RoundRect,0.250000X-0.550000X-0.550000X0.550000X-0.550000X0.550000X0.550000X-0.550000X0.550000X0*%
%ADD38RoundRect,0.250000X-0.550000X0.550000X-0.550000X-0.550000X0.550000X-0.550000X0.550000X0.550000X0*%
G04 APERTURE END LIST*
D10*
%TO.C,J11*%
X184050000Y-91700000D03*
D11*
X184050000Y-89700000D03*
X184050000Y-87700000D03*
%TD*%
D12*
%TO.C,J10*%
X184300000Y-108600000D03*
D11*
X184300000Y-110600000D03*
X184300000Y-112600000D03*
%TD*%
D13*
%TO.C,C18*%
X175700000Y-70000000D03*
X175700000Y-65000000D03*
%TD*%
D14*
%TO.C,J8*%
X123620000Y-116340000D03*
D15*
X126160000Y-116340000D03*
X128700000Y-116340000D03*
X131240000Y-116340000D03*
X133780000Y-116340000D03*
X136320000Y-116340000D03*
X138860000Y-116340000D03*
X141400000Y-116340000D03*
%TD*%
D13*
%TO.C,C7*%
X139600000Y-82600000D03*
X134600000Y-82600000D03*
%TD*%
D16*
%TO.C,PS1*%
X155960000Y-66000000D03*
D17*
X158500000Y-66000000D03*
X163580000Y-66000000D03*
X168660000Y-66000000D03*
%TD*%
D18*
%TO.C,C10*%
X146500000Y-82055113D03*
D13*
X146500000Y-80055113D03*
%TD*%
%TO.C,C15*%
X167100000Y-102300000D03*
X172100000Y-102300000D03*
%TD*%
D19*
%TO.C,C11*%
X173396369Y-108000000D03*
D13*
X170896369Y-108000000D03*
%TD*%
%TO.C,R15*%
X176600000Y-84910000D03*
X176600000Y-77290000D03*
%TD*%
D20*
%TO.C,TP3*%
X82800000Y-68800000D03*
%TD*%
D21*
%TO.C,U7*%
X174430000Y-73960000D03*
D22*
X175700000Y-73960000D03*
X176970000Y-73960000D03*
%TD*%
D23*
%TO.C,H1*%
X69800000Y-66500000D03*
%TD*%
D24*
%TO.C,J3*%
X149100000Y-116340000D03*
D25*
X149100000Y-113800000D03*
X151640000Y-116340000D03*
X151640000Y-113800000D03*
X154180000Y-116340000D03*
X154180000Y-113800000D03*
X156720000Y-116340000D03*
X156720000Y-113800000D03*
%TD*%
D13*
%TO.C,C14*%
X168100000Y-79000000D03*
X168100000Y-84000000D03*
%TD*%
D24*
%TO.C,J2*%
X96900000Y-116340000D03*
D25*
X96900000Y-113800000D03*
X99440000Y-116340000D03*
X99440000Y-113800000D03*
X101980000Y-116340000D03*
X101980000Y-113800000D03*
X104520000Y-116340000D03*
X104520000Y-113800000D03*
%TD*%
D26*
%TO.C,J1*%
X88500000Y-118900000D03*
D27*
X80700000Y-118900000D03*
%TD*%
D13*
%TO.C,C5*%
X168400000Y-111200000D03*
X163400000Y-111200000D03*
%TD*%
D28*
%TO.C,J7*%
X139400000Y-77000000D03*
D29*
X137400000Y-77000000D03*
X135400000Y-77000000D03*
X133400000Y-77000000D03*
X131400000Y-77000000D03*
X129400000Y-77000000D03*
X127400000Y-77000000D03*
%TD*%
D19*
%TO.C,C6*%
X98500000Y-76700000D03*
D13*
X96000000Y-76700000D03*
%TD*%
D30*
%TO.C,U1*%
X87400000Y-112100000D03*
X69900000Y-112100000D03*
X87400000Y-71800000D03*
X69900000Y-71800000D03*
%TD*%
D13*
%TO.C,R16*%
X186310000Y-98100000D03*
X178690000Y-98100000D03*
%TD*%
%TO.C,C3*%
X151700000Y-107100000D03*
X151700000Y-102100000D03*
%TD*%
D28*
%TO.C,J5*%
X171020000Y-117840000D03*
D29*
X169020000Y-117840000D03*
X167020000Y-117840000D03*
X165020000Y-117840000D03*
%TD*%
D31*
%TO.C,F1*%
X75590000Y-120980000D03*
X75600000Y-115900000D03*
%TD*%
D13*
%TO.C,C8*%
X103700000Y-73700000D03*
X103700000Y-78700000D03*
%TD*%
%TO.C,C1*%
X101600000Y-82700000D03*
X106600000Y-82700000D03*
%TD*%
D28*
%TO.C,J4*%
X118720000Y-117740000D03*
D29*
X116720000Y-117740000D03*
X114720000Y-117740000D03*
X112720000Y-117740000D03*
%TD*%
D13*
%TO.C,R17*%
X178690000Y-101500000D03*
X186310000Y-101500000D03*
%TD*%
D20*
%TO.C,TP1*%
X74100000Y-68800000D03*
%TD*%
D13*
%TO.C,C17*%
X179700000Y-77100000D03*
X184700000Y-77100000D03*
%TD*%
D32*
%TO.C,U2*%
X98220000Y-71000000D03*
D33*
X100760000Y-71000000D03*
X103300000Y-71000000D03*
%TD*%
D13*
%TO.C,C16*%
X172800000Y-88100000D03*
X172800000Y-93100000D03*
%TD*%
%TO.C,R12*%
X168900000Y-95110000D03*
X168900000Y-87490000D03*
%TD*%
%TO.C,C9*%
X123000000Y-82300000D03*
X118000000Y-82300000D03*
%TD*%
D34*
%TO.C,A1*%
X99080000Y-104980000D03*
D13*
X101620000Y-104980000D03*
D35*
X104160000Y-104980000D03*
D13*
X106700000Y-104980000D03*
X109240000Y-104980000D03*
X111780000Y-104980000D03*
X114320000Y-104980000D03*
D35*
X116860000Y-104980000D03*
D13*
X119400000Y-104980000D03*
X121940000Y-104980000D03*
X124480000Y-104980000D03*
X127020000Y-104980000D03*
D35*
X129560000Y-104980000D03*
D13*
X132100000Y-104980000D03*
X134640000Y-104980000D03*
X137180000Y-104980000D03*
X139720000Y-104980000D03*
D35*
X142260000Y-104980000D03*
D13*
X144800000Y-104980000D03*
X147340000Y-104980000D03*
X147340000Y-87200000D03*
X144800000Y-87200000D03*
D36*
X142260000Y-87200000D03*
D13*
X139720000Y-87200000D03*
X137180000Y-87200000D03*
X134640000Y-87200000D03*
X132100000Y-87200000D03*
D36*
X129560000Y-87200000D03*
D13*
X127020000Y-87200000D03*
X124480000Y-87200000D03*
X121940000Y-87200000D03*
X119400000Y-87200000D03*
D36*
X116860000Y-87200000D03*
D13*
X114320000Y-87200000D03*
X111780000Y-87200000D03*
X109240000Y-87200000D03*
X106700000Y-87200000D03*
D36*
X104160000Y-87200000D03*
D13*
X101620000Y-87200000D03*
X99080000Y-87200000D03*
%TD*%
%TO.C,C19*%
X179400000Y-70000000D03*
X179400000Y-65000000D03*
%TD*%
D12*
%TO.C,J9*%
X178480000Y-108600000D03*
D11*
X178480000Y-110600000D03*
X178480000Y-112600000D03*
%TD*%
D37*
%TO.C,C13*%
X168500000Y-73800000D03*
D13*
X170500000Y-73800000D03*
%TD*%
D20*
%TO.C,TP6*%
X185200000Y-73900000D03*
%TD*%
D13*
%TO.C,C2*%
X93500000Y-109000000D03*
X93500000Y-104000000D03*
%TD*%
%TO.C,R14*%
X172100000Y-85910000D03*
X172100000Y-78290000D03*
%TD*%
D38*
%TO.C,C12*%
X150900000Y-68244888D03*
D13*
X150900000Y-70244888D03*
%TD*%
D23*
%TO.C,H2*%
X69800000Y-119500000D03*
%TD*%
D13*
%TO.C,C4*%
X118700000Y-110500000D03*
X113700000Y-110500000D03*
%TD*%
D20*
%TO.C,TP2*%
X92700000Y-68100000D03*
%TD*%
D23*
%TO.C,H4*%
X185800000Y-66500000D03*
%TD*%
D28*
%TO.C,J6*%
X122000000Y-76900000D03*
D29*
X120000000Y-76900000D03*
X118000000Y-76900000D03*
X116000000Y-76900000D03*
X114000000Y-76900000D03*
%TD*%
D13*
%TO.C,R13*%
X174510000Y-98700000D03*
X166890000Y-98700000D03*
%TD*%
D23*
%TO.C,H3*%
X185800000Y-119500000D03*
%TD*%
D13*
%TO.C,R10*%
X158000000Y-86800000D03*
X158000000Y-94420000D03*
%TD*%
%TO.C,R4*%
X123080000Y-102310000D03*
X123080000Y-94690000D03*
%TD*%
%TO.C,R7*%
X131200000Y-101970000D03*
X131200000Y-94350000D03*
%TD*%
%TO.C,R11*%
X158000000Y-106400000D03*
X158000000Y-98780000D03*
%TD*%
D20*
%TO.C,TP5*%
X165700000Y-68400000D03*
%TD*%
D13*
%TO.C,R2*%
X120080000Y-102310000D03*
X120080000Y-94690000D03*
%TD*%
D20*
%TO.C,TP4*%
X170600000Y-68200000D03*
%TD*%
D13*
%TO.C,R9*%
X158000000Y-71890000D03*
X158000000Y-79510000D03*
%TD*%
%TO.C,R3*%
X114880000Y-102310000D03*
X114880000Y-94690000D03*
%TD*%
%TO.C,R8*%
X128170000Y-101970000D03*
X128170000Y-94350000D03*
%TD*%
%TO.C,R1*%
X111400000Y-102210000D03*
X111400000Y-94590000D03*
%TD*%
%TO.C,R5*%
X139400000Y-101910000D03*
X139400000Y-94290000D03*
%TD*%
%TO.C,R6*%
X136400000Y-101910000D03*
X136400000Y-94290000D03*
%TD*%
M02*
